PathFileType	4	(X/Y/Z)	C:/Users/beibeiliu/ov580/test_trc/User3\sequence.23_training_dense_left.trc
DataRate	CameraRate	NumFrames	NumMarkers	Units	OrigDataRate	OrigDataStartFrame	OrigNumFrames
120	120	13	19	mm	120	31	92
Frame#	Time	ThumbCMC			ThumbMCP			ThumbIP			ThumbTip			IndexMCP			IndexPIP			IndexTip			MiddleMCP			MiddlePIP			MiddleTip			RingMCP			RingPIP			RingTip			PinkyMCP			PinkyPIP			PinkyTip			BackHand1			BackHand2			BackHand3	
		X0	Y0	Z0	X1	Y1	Z1	X2	Y2	Z2	X3	Y3	Z3	X4	Y4	Z4	X5	Y5	Z5	X6	Y6	Z6	X7	Y7	Z7	X8	Y8	Z8	X9	Y9	Z9	X10	Y10	Z10	X11	Y11	Z11	X12	Y12	Z12	X13	Y13	Z13	X14	Y14	Z14	X15	Y15	Z15	X16	Y16	Z16	X17	Y17	Z17	X18	Y18	Z18	
30	0.25	-209.795	-18.5494	48.5812	-213.005	-8.19293	16.0509	-213.461	-9.04535	-10.4918	-214.961	-12.2472	-36.4725	-249.068	-33.2732	-16.0544	-250.164	-28.4077	-37.5748	-251.788	-18.4033	-67.3185	-228.705	-55.1605	-23.3482	-229.335	-46.435	-52.6959	-226.279	-34.8872	-80.2739	-199.713	-48.9978	-22.9651	-178.127	-26.6576	-28.373	-166.5	-6.74655	-6.8499	-181.424	-56.2149	-13.9279	-168.579	-34.0109	-13.4101	-164.733	-14.6585	13.3318	-207.503	-78.3746	29.7163	-194.681	-74.2033	61.2507	-223.898	-53.1543	52.1332	
31	0.258333	-194.982	9.56441	49.2124	-194.429	18.5136	14.417	-200.547	17.1451	-11.4264	-204.135	19.1715	-36.6621	-242.815	13.0223	-13.7639	-242.815	23.6695	-34.8532	-241.896	30.8966	-61.8295	-241.462	-10.8003	-23.2305	-238.565	-4.85026	-49.686	-234.716	3.17334	-80.139	-211.863	-28.0912	-18.2813	-186.719	-18.6193	-28.8014	-158.799	-11.033	-10.4662	-202.026	-44.822	-11.0537	-175.368	-30.8667	-14.392	-162.068	-19.6785	5.15591	-230.18	-41.5861	35.4915	-213.521	-43.3518	65.1436	-226.598	-7.31362	54.3888	
32	0.266667	-171.623	22.3723	43.7568	-169.301	27.6376	11.9519	-174.388	32.4559	-17.8823	-182.552	31.2161	-39.4456	-211.481	49.4568	-11.1288	-209.539	55.1748	-38.9157	-208.338	59.5725	-64.6063	-226.156	24.1133	-21.1225	-224.044	27.9949	-48.9468	-217.026	32.0934	-80.1399	-208.743	-0.264433	-19.1591	-183.009	-10.2204	-30.2794	-155.929	-16.9957	-12.9315	-207.792	-22.8453	-12.4112	-180.501	-20.3676	-15.0406	-160.38	-19.5227	7.30579	-229.708	-3.76752	34.4614	-213.98	-12.8317	64.3837	-208.008	18.063	52.4215	
33	0.275	-145.844	22.8269	40.3195	-144.151	26.2812	6.01125	-151.151	31.758	-25.5043	-156.027	31.2337	-43.2423	-177.678	57.5821	-18.7626	-173.014	63.1169	-44.3275	-168.19	67.3296	-70.046	-198.087	43.2918	-28.371	-196.627	42.8531	-53.273	-191.631	42.91	-82.6134	-190.8	11.4255	-23.516	-172.029	-7.70952	-30.9281	-149.688	-23.915	-10.3595	-197.93	-8.5238	-16.9026	-174.163	-17.1821	-14.0913	-157.787	-26.2309	6.85634	-210.072	23.1188	31.0797	-203.653	9.67885	58.1686	-184.382	35.2168	47.8459	
34	0.283333	-128.274	11.764	37.6137	-121.683	11.7375	3.52286	-127.7	16.2606	-25.0979	-136.271	18.5274	-47.4655	-144.898	51.9734	-22.9325	-139.977	54.1192	-53.399	-136.859	55.8572	-73.4435	-172.137	43.599	-34.2421	-172.281	39.8997	-60.6279	-168.716	36.9842	-92.1522	-176.918	10.1075	-25.6854	-157.43	-15.0676	-32.0236	-143.848	-33.6594	-7.50605	-189.322	-3.141	-14.5639	-165.275	-22.5858	-12.7897	-151.53	-28.0501	11.4758	-187.839	30.6289	27.3804	-185.661	15.7152	58.7737	-160.283	34.9419	42.9945	
35	0.291667	-111.921	-2.99876	36.8341	-109.327	-4.0119	0.740426	-114.341	-3.46043	-25.8478	-122.889	-3.84048	-49.1992	-121.6	35.4268	-30.1037	-113.714	32.8852	-58.7743	-113.025	30.8574	-79.3154	-156.428	29.4646	-38.922	-152.9	24.7961	-64.697	-152.149	20.4423	-94.3689	-163.992	-0.587325	-27.0027	-150.995	-30.6319	-29.474	-139.839	-45.0588	-5.20486	-174.981	-12.3962	-17.673	-157.998	-33.3189	-9.03271	-149.993	-38.0113	15.6443	-171.42	28.8579	21.8641	-170.774	18.3871	54.844	-139.214	26.0556	39.6791	
36	0.3	-101.764	-12.3943	36.7538	-100.828	-20.1164	2.81873	-105.07	-24.2665	-24.2248	-110.094	-28.8365	-50.2086	-112.71	13.5797	-36.2067	-106.947	7.89109	-58.7664	-104.682	1.33704	-83.8596	-142.484	12.7611	-40.3927	-141.394	4.3002	-64.469	-147.684	-6.1315	-92.8698	-155.665	-12.3035	-25.378	-148.568	-41.8738	-26.4195	-134.426	-56.9051	4.54104	-165.733	-21.9055	-14.5647	-152.995	-42.2103	-5.3271	-143.485	-45.5248	23.1979	-159.747	21.0715	20.4454	-156.952	18.4802	50.3249	-126.009	19.3255	34.5955	
37	0.308333	-95.9029	-14.6573	36.6813	-92.3895	-28.301	5.20046	-95.845	-38.1495	-19.122	-100.837	-46.5391	-43.1802	-102.236	-2.19885	-41.2061	-95.321	-11.9311	-62.1489	-89.8713	-23.5881	-83.5941	-134.858	-1.57482	-40.1439	-135.188	-14.7248	-65.4098	-139.065	-30.6676	-90.9963	-148.686	-24.4938	-23.6173	-137.996	-56.2673	-18.5161	-130.543	-65.1852	14.5714	-162.874	-27.7612	-11.1415	-149.737	-51.6712	0.0469486	-134.197	-52.8921	22.2197	-146.131	16.6092	17.9109	-151.583	18.2674	47.8676	-113.501	17.3474	29.1473	
38	0.316667	-91.1801	-9.88075	40.2818	-80.3413	-31.4422	14.0726	-81.4372	-45.1734	-12.714	-88.8918	-56.5898	-29.5505	-91.5791	-11.6257	-34.6615	-79.2256	-27.843	-55.6292	-77.3258	-42.841	-75.5477	-118.849	-16.2785	-40.7046	-119.787	-36.3345	-61.9467	-119.66	-60.0826	-85.2254	-132.395	-38.0506	-20.7908	-124.445	-65.8497	-9.55201	-115.683	-69.7511	21.8427	-147.573	-41.561	-7.32423	-136.422	-60.6096	8.12384	-122.025	-53.9032	36.6353	-144.5	8.7415	13.1262	-143.224	17.1816	41.8339	-109.556	18.7297	26.5909	
39	0.325	-90.1284	-0.108548	41.7315	-77.1688	-22.6214	23.1819	-68.4976	-42.7367	-3.43348	-67.0755	-59.6439	-22.2287	-80.5714	-20.5232	-33.9025	-67.4811	-32.6085	-45.0398	-54.5325	-52.4198	-61.7363	-108.647	-35.1448	-37.5933	-97.5684	-56.4332	-51.1535	-89.3841	-78.6937	-63.9567	-115.487	-48.3611	-13.0446	-102.328	-71.2799	5.30985	-96.3991	-67.4245	38.7825	-130.017	-56.6381	0.829699	-114.133	-65.2071	20.4486	-107.325	-47.7853	44.3281	-140.811	0.661548	8.0549	-148.782	9.90294	36.4117	-112.793	19.6678	23.9455	
40	0.333333	-88.7389	11.8435	39.0346	-72.2902	-11.6219	23.5225	-56.9966	-30.1361	4.5579	-46.9268	-46.9663	-8.5497	-73.0598	-19.6025	-29.9979	-52.8901	-30.0531	-36.6052	-38.0172	-45.9926	-47.0808	-92.3789	-41.1174	-29.3278	-74.6071	-58.4102	-37.1281	-51.15	-78.1758	-45.6958	-99.616	-54.3214	-3.30891	-79.0818	-65.9024	16.5712	-75.1441	-51.9566	49.108	-111.948	-59.4435	8.14331	-94.7843	-62.4182	31.208	-91.2606	-39.969	50.4568	-141.082	-16.1294	4.94601	-152.01	0.765682	32.4531	-123.417	16.8205	17.0537	
41	0.341667	-99.0735	22.4072	34.914	-76.2782	2.80926	26.0187	-52.3756	-14.2747	5.01034	-41.1505	-28.2529	-6.09183	-73.2878	-9.23303	-27.2542	-51.6052	-15.7647	-34.0098	-30.637	-28.4581	-41.3013	-82.148	-38.8009	-25.6223	-58.8369	-49.031	-31.3212	-33.0331	-65.7039	-35.0529	-87.0672	-50.2435	2.26797	-62.794	-49.0446	22.0429	-63.0257	-32.854	50.9899	-95.1429	-59.7454	17.9829	-78.4073	-49.2892	37.7811	-85.5481	-25.6644	57.4892	-137.404	-23.558	7.73167	-152.166	-7.89251	31.6766	-130.991	14.526	14.7753	
42	0.35	-112.448	28.261	29.5664	-83.0486	23.1022	18.6245	-61.4552	6.80408	0.8004	-44.6673	-0.26896	-8.29959	-80.5726	7.46123	-31.5539	-53.3103	5.61142	-39.2323	-27.8991	2.46176	-46.8255	-77.1306	-24.7663	-26.9148	-52.3829	-29.7324	-32.5107	-19.0409	-31.3294	-38.1974	-78.4258	-34.2344	3.3054	-55.7412	-27.3884	25.5189	-60.0099	-7.79573	50.0573	-82.6435	-44.746	19.5825	-68.7567	-28.003	37.0547	-79.2557	-7.48568	54.4467	-135.937	-25.2539	10.3781	-153.588	-15.862	34.2566	-140.888	10.5152	13.1649	
